<svg width="23" height="16" viewBox="0 0 23 16" fill="none" xmlns="http://www.w3.org/2000/svg">
<rect x="0.5" y="0.5" width="22" height="15" rx="2" fill="white" stroke="#D9D9D9"/>
<path d="M20.9955 7.0486L20.9999 7.04375H20.3024L19.862 8.57047H19.8386L19.333 7.04375H18.5042L19.5014 9.5633L19.0848 10.3313V10.3498H19.7355L20.9955 7.0486Z" fill="black"/>
<path d="M13.2637 7.04375H12.5239V9.55404H13.2637V7.04375Z" fill="black"/>
<path d="M18.3588 8.92627V7.87745C18.3588 7.30609 18.0215 6.9922 17.4268 6.9922C17.0472 6.9922 16.7853 7.05788 16.3074 7.20293L16.4384 7.77914C16.8739 7.58251 17.0657 7.49831 17.2672 7.49831C17.5105 7.49831 17.6186 7.67157 17.6186 7.93873V7.95725C16.7708 8.1164 16.5085 8.20546 16.3449 8.36946C16.2232 8.49114 16.1716 8.6644 16.1716 8.86587C16.1716 9.34818 16.5464 9.60564 16.8973 9.60564C17.1596 9.60564 17.3703 9.50733 17.656 9.29175L17.7076 9.55406H18.4474L18.3588 8.92627ZM17.619 8.94523C17.4224 9.0528 17.3099 9.09512 17.179 9.09512C17.0009 9.09512 16.8885 8.97785 16.8885 8.79092C16.8885 8.72083 16.9026 8.65029 16.9586 8.5943C17.0476 8.50524 17.2209 8.43955 17.619 8.34609V8.94523Z" fill="black"/>
<path d="M15.1043 6.9922C14.8328 6.9922 14.622 7.09536 14.3831 7.29198V7.04378H13.6433V10.3498H14.3831V9.53026C14.5237 9.56773 14.6547 9.58669 14.8138 9.58669C15.4742 9.58669 16.069 9.09953 16.069 8.23323C16.069 7.45598 15.6382 6.9922 15.1043 6.9922ZM14.6357 9.1229C14.5515 9.1229 14.4717 9.11364 14.3826 9.08542V7.72756C14.5374 7.61999 14.6635 7.56841 14.8226 7.56841C15.099 7.56841 15.319 7.7884 15.319 8.25704C15.3195 8.85617 14.9963 9.1229 14.6357 9.1229Z" fill="black"/>
<path d="M6.25298 5.75072H3.08096C2.66787 5.75072 2.33325 6.08842 2.33325 6.5046V9.70351C2.33325 10.1197 2.66787 10.4574 3.08096 10.4574H6.25298C6.66607 10.4574 7.00025 10.1197 7.00025 9.70351V6.5046C7.00069 6.08798 6.66607 5.75072 6.25298 5.75072Z" fill="#1677FF"/>
<path d="M6.17594 8.7062C5.98946 8.64316 5.73861 8.54661 5.45954 8.44477C5.62707 8.15071 5.76109 7.8161 5.84926 7.45238H4.92918V7.11821H6.05603V6.93172H4.92918V6.37447H4.46935C4.38868 6.37447 4.38868 6.4547 4.38868 6.4547V6.93128H3.24904V7.11777H4.38868V7.45194H3.44743V7.63843H5.27261C5.20604 7.87032 5.1161 8.08855 5.00985 8.2865C4.41777 8.08943 3.78557 7.92984 3.38879 8.02815C3.13486 8.09119 2.97129 8.20362 2.87519 8.32177C2.43432 8.86271 2.75042 9.68448 3.68153 9.68448C4.23217 9.68448 4.76253 9.37499 5.17342 8.86491C5.78666 9.16206 7.00036 9.67258 7.00036 9.67258V8.94515C7.0008 8.94515 6.84826 8.93281 6.17594 8.7062ZM3.59468 9.37014C2.86857 9.37014 2.65387 8.79349 3.01274 8.47783C3.13265 8.37114 3.35132 8.31912 3.46771 8.30766C3.89887 8.2649 4.2983 8.43066 4.76958 8.66256C4.43849 9.09813 4.01659 9.37014 3.59468 9.37014Z" fill="white"/>
<path d="M9.9809 6.25245H8.98807L7.87842 9.55409H8.5622L8.74957 8.90778H9.92491L10.103 9.55409H10.9786L9.9809 6.25245ZM8.90387 8.36904L9.34385 6.84718H9.36237L9.77899 8.36904H8.90387Z" fill="black"/>
<path d="M12.0178 6.13514H11.2781V9.55361H12.0178V6.13514Z" fill="black"/>
<path d="M12.4675 6.43974C12.4675 6.6831 12.6456 6.8471 12.8938 6.8471C13.1421 6.8471 13.3202 6.6831 13.3202 6.43974C13.3202 6.20079 13.1421 6.03238 12.8938 6.03238C12.6456 6.03238 12.4675 6.20079 12.4675 6.43974Z" fill="#1677FF"/>
</svg>
