<svg width="23" height="16" viewBox="0 0 23 16" fill="none" xmlns="http://www.w3.org/2000/svg">
<rect x="0.5" y="0.5" width="22" height="15" rx="2" fill="white" stroke="#D9D9D9"/>
<path fill-rule="evenodd" clip-rule="evenodd" d="M10.8626 10.5054V8.49143H11.8872C12.3071 8.49143 12.6615 8.34871 12.9504 8.06723L13.0197 7.99586C13.5474 7.41308 13.5127 6.50521 12.9504 5.96604C12.6692 5.68059 12.284 5.52598 11.8872 5.53391H10.2425V10.5054H10.8626ZM10.8627 7.8809V6.14444H11.9029C12.1263 6.14444 12.3382 6.23166 12.4962 6.39024C12.8313 6.72326 12.839 7.27829 12.5154 7.62321C12.3575 7.79368 12.134 7.88883 11.9029 7.8809H10.8627ZM15.9125 7.36949C15.6467 7.11972 15.2846 6.99286 14.8263 6.99286C14.2369 6.99286 13.7939 7.21487 13.5012 7.65493L14.0482 8.00777C14.2485 7.70647 14.522 7.55582 14.8686 7.55582C15.0882 7.55582 15.3 7.63907 15.4657 7.78972C15.6274 7.93245 15.7199 8.1386 15.7199 8.35665V8.50333C15.4811 8.36854 15.1806 8.29718 14.8108 8.29718C14.3794 8.29718 14.0328 8.40026 13.7747 8.61038C13.5166 8.82049 13.3856 9.09801 13.3856 9.45085C13.3779 9.77198 13.5128 10.0772 13.7516 10.2834C13.9942 10.5054 14.3024 10.6164 14.6645 10.6164C15.092 10.6164 15.431 10.4222 15.6891 10.0336H15.716V10.5054H16.3092V8.40819C16.3092 7.96813 16.1783 7.61925 15.9125 7.36949ZM14.2293 9.87898C14.1022 9.78384 14.0251 9.62922 14.0251 9.46271C14.0251 9.27638 14.1099 9.12176 14.2756 8.99886C14.4451 8.87596 14.6569 8.81253 14.9074 8.81253C15.2541 8.80857 15.5238 8.88786 15.7164 9.04644C15.7164 9.31602 15.6124 9.54993 15.4082 9.74816C15.2233 9.93845 14.9729 10.0455 14.7109 10.0455C14.5375 10.0495 14.368 9.98999 14.2293 9.87898ZM17.642 12L19.7143 7.10388H19.0402L18.0811 9.54601H18.0695L17.0873 7.10388H16.4132L17.7729 10.2874L17.0026 12H17.642Z" fill="#3C4043"/>
<path d="M8.72165 8.05532C8.72165 7.86106 8.70624 7.6668 8.67542 7.4765H6.06V8.57467H7.55838C7.49675 8.92751 7.29645 9.24467 7.00371 9.4429V10.1565H7.89734C8.4212 9.66094 8.72165 8.92751 8.72165 8.05532Z" fill="#4285F4"/>
<path d="M6.06013 10.8463C6.8074 10.8463 7.43911 10.5926 7.89748 10.1565L7.00384 9.44288C6.75347 9.61732 6.43377 9.71643 6.06013 9.71643C5.33598 9.71643 4.72353 9.21294 4.50397 8.53897H3.58337V9.27637C4.0533 10.2397 5.01242 10.8463 6.06013 10.8463Z" fill="#34A853"/>
<path d="M4.50406 8.539C4.38848 8.18615 4.38848 7.8016 4.50406 7.44479V6.71136H3.58331C3.1865 7.51615 3.1865 8.46763 3.58331 9.27243L4.50406 8.539Z" fill="#FBBC04"/>
<path d="M6.06013 6.26732C6.45688 6.25939 6.83821 6.414 7.12325 6.69548L7.91674 5.8788C7.41214 5.39513 6.74962 5.1295 6.06013 5.13743C5.01242 5.13743 4.0533 5.74797 3.58337 6.71134L4.50397 7.44874C4.72353 6.77081 5.33598 6.26732 6.06013 6.26732Z" fill="#EA4335"/>
</svg>
