<svg width="23" height="16" viewBox="0 0 23 16" fill="none" xmlns="http://www.w3.org/2000/svg">
<rect x="0.5" y="0.5" width="22" height="15" rx="2" fill="white" stroke="#D9D9D9"/>
<path fill-rule="evenodd" clip-rule="evenodd" d="M16.6717 7.95666C16.6717 10.8783 14.3371 13.2467 11.4572 13.2467C8.57738 13.2467 6.2428 10.8783 6.2428 7.95666C6.2428 5.03508 8.57738 2.66666 11.4572 2.66666C14.3371 2.66666 16.6717 5.03508 16.6717 7.95666ZM10.1855 7.95674L10.9484 5.05365H12.6019L12.0295 7.31167L12.7927 6.98914L12.6019 7.69865L11.8387 7.95674L11.4572 9.37605H14.1918L13.9374 10.4081H9.54938L9.99465 8.66625L9.3588 8.92434L9.54938 8.21482L10.1855 7.95674Z" fill="#A5A8A9"/>
</svg>
