<svg width="23" height="16" viewBox="0 0 23 16" fill="none" xmlns="http://www.w3.org/2000/svg">
<rect x="0.5" y="0.5" width="22" height="15" rx="2" fill="white" stroke="#D9D9D9"/>
<path fill-rule="evenodd" clip-rule="evenodd" d="M13.084 7.65872H13.8371C14.0758 7.64998 14.2211 7.63133 14.2733 7.60212C14.3447 7.56222 14.3926 7.48238 14.4165 7.36258C14.4317 7.28285 14.4393 7.16433 14.4393 7.00685C14.4393 6.81396 14.4242 6.67099 14.3938 6.57758C14.3503 6.44678 14.2463 6.3671 14.0814 6.33816C14.0489 6.33379 13.9709 6.33147 13.8473 6.33147H13.084V7.65872ZM11.8761 9.89427V5.33334H14.1265C14.4352 5.33334 14.6708 5.35895 14.8326 5.41014C15.2027 5.528 15.4511 5.7693 15.5783 6.134C15.6439 6.32539 15.6768 6.61356 15.6768 6.99834C15.6768 7.46098 15.6403 7.79347 15.5683 7.99587C15.424 8.39615 15.1268 8.62672 14.6782 8.68648C14.6254 8.69544 14.4009 8.70346 14.0047 8.70988L13.8041 8.71669H13.084V9.89427H11.8761ZM5.81078 6.78832H6.93451C6.94175 6.68756 6.9454 6.61219 6.9454 6.56178C6.9454 5.94721 6.70092 5.57322 6.21191 5.4397C6.01154 5.38509 5.67542 5.35753 5.20378 5.35753C4.9042 5.35753 4.63185 5.36865 4.38634 5.3904C4.09128 5.41452 3.84887 5.49525 3.65944 5.63275C3.53012 5.72234 3.43641 5.85331 3.37826 6.02584C3.32017 6.19831 3.29109 6.4276 3.29109 6.71356C3.29109 7.08905 3.34489 7.36975 3.45242 7.55528C3.57477 7.77362 3.81996 7.91743 4.18787 7.98737C4.32759 8.01166 4.57707 8.03672 4.93622 8.06279C5.38347 8.09338 5.63404 8.11751 5.68789 8.13483C5.83191 8.17865 5.90406 8.30083 5.90406 8.50163C5.90406 8.59127 5.89551 8.66453 5.8783 8.72113C5.8459 8.81309 5.77811 8.87955 5.67482 8.92083C5.61678 8.94285 5.48224 8.9538 5.27141 8.9538H4.8583C4.74832 8.95137 4.65477 8.93084 4.57729 8.89172C4.46551 8.835 4.40948 8.70763 4.40948 8.50959L4.40937 8.41476H3.28564C3.28564 8.78587 3.31238 9.05097 3.36639 9.21016C3.46337 9.49612 3.66374 9.68602 3.96768 9.77975C4.21531 9.85627 4.6539 9.89434 5.28323 9.89434C5.66023 9.89434 5.94054 9.8768 6.12376 9.84172C6.5611 9.75878 6.84216 9.5613 6.96729 9.24861C7.03633 9.07819 7.0708 8.80928 7.0708 8.44209C7.0708 8.28279 7.06328 8.13942 7.04814 8.01271C7.02228 7.8009 6.94121 7.62937 6.80525 7.49812C6.63248 7.32991 6.35402 7.22611 5.96994 7.18676C5.84895 7.17365 5.54562 7.15058 5.05993 7.11782L4.83331 7.10155C4.73383 7.09502 4.65406 7.07317 4.59368 7.03598C4.50939 6.98358 4.46736 6.87425 4.46736 6.70819C4.46736 6.52477 4.51484 6.40564 4.60969 6.35086C4.70459 6.29624 4.89909 6.26897 5.19246 6.26897C5.49454 6.26897 5.67913 6.31639 5.74599 6.41111C5.78911 6.47513 5.81078 6.6009 5.81078 6.78832ZM3.28999 10.7988L3.45845 10.7815C3.46858 10.8392 3.48916 10.8815 3.52015 10.9086C3.55118 10.9357 3.593 10.9492 3.64565 10.9492C3.70141 10.9492 3.74339 10.9372 3.7717 10.9132C3.79996 10.8891 3.81406 10.861 3.81406 10.8288C3.81406 10.8082 3.80813 10.7906 3.79631 10.7761C3.78444 10.7616 3.76375 10.749 3.73419 10.7382C3.71393 10.7312 3.66787 10.7186 3.59594 10.7004C3.50332 10.6772 3.43842 10.6485 3.40106 10.6145C3.34858 10.5667 3.32233 10.5084 3.32233 10.4395C3.32233 10.3953 3.33469 10.3539 3.35947 10.3154C3.38419 10.2768 3.4199 10.2474 3.46646 10.2273C3.51307 10.2071 3.56931 10.197 3.6352 10.197C3.74279 10.197 3.82375 10.2211 3.87815 10.2691C3.93254 10.3172 3.96108 10.3813 3.9638 10.4616L3.79027 10.4685C3.78286 10.4237 3.76696 10.3915 3.74257 10.3718C3.71823 10.3521 3.6817 10.3423 3.63296 10.3423C3.58265 10.3423 3.54334 10.3528 3.51486 10.3738C3.49651 10.3873 3.48737 10.4053 3.48737 10.4279C3.48737 10.4485 3.49597 10.4661 3.51312 10.4808C3.5349 10.4994 3.58788 10.5188 3.67206 10.5389C3.75618 10.5591 3.81842 10.5799 3.85877 10.6016C3.89906 10.6232 3.93064 10.6528 3.95345 10.6904C3.97621 10.728 3.98765 10.7744 3.98765 10.8296C3.98765 10.8797 3.97398 10.9266 3.94665 10.9703C3.91931 11.014 3.88071 11.0465 3.83078 11.0677C3.78085 11.089 3.71861 11.0997 3.64407 11.0997C3.53561 11.0997 3.4523 11.074 3.39415 11.0228C3.33605 10.9716 3.30131 10.8969 3.28999 10.7988ZM4.16745 10.4531H4.33248V11.0842H4.16745V10.4531ZM4.16745 10.2127H4.33248V10.3666H4.16745V10.2127ZM4.93775 11.0842H5.10278V10.6911C5.10278 10.6423 5.09973 10.6048 5.09369 10.5786C5.08764 10.5524 5.07692 10.529 5.06151 10.5084C5.0461 10.4877 5.02339 10.4707 4.99339 10.4575C4.96339 10.4442 4.93023 10.4375 4.89397 10.4375C4.81175 10.4375 4.74347 10.4736 4.68929 10.5458V10.453H4.53618V11.0842H4.70122V10.7977C4.70122 10.727 4.70536 10.6786 4.71374 10.6524C4.72207 10.6262 4.73748 10.6051 4.76002 10.5893C4.78257 10.5734 4.80799 10.5654 4.83636 10.5654C4.85847 10.5654 4.87742 10.571 4.89315 10.5821C4.90889 10.5932 4.92021 10.6089 4.92724 10.6289C4.93421 10.6489 4.93775 10.6931 4.93775 10.7613V11.0842ZM5.43655 10.755C5.43655 10.8222 5.44918 10.8714 5.47456 10.9025C5.49988 10.9338 5.53113 10.9493 5.56832 10.9493C5.60812 10.9493 5.64177 10.9333 5.66927 10.9013C5.69671 10.8694 5.71049 10.8219 5.71049 10.7591C5.71049 10.6936 5.69731 10.6449 5.67101 10.6131C5.64466 10.5814 5.61144 10.5654 5.57121 10.5654C5.53211 10.5654 5.49988 10.5811 5.47456 10.6122C5.44918 10.6435 5.43655 10.691 5.43655 10.755ZM5.28853 11.1257L5.47567 11.1464C5.47883 11.1699 5.48607 11.1861 5.4974 11.1949C5.51308 11.2075 5.53774 11.2139 5.57139 11.2139C5.61446 11.2139 5.64675 11.2073 5.66831 11.1943C5.68274 11.1855 5.69374 11.1715 5.7012 11.1521C5.70626 11.1381 5.70882 11.1126 5.70882 11.0753L5.70931 10.9832C5.66064 11.0505 5.59889 11.0842 5.52397 11.0842C5.44039 11.0842 5.37429 11.0483 5.3255 10.9764C5.28722 10.9197 5.26811 10.8489 5.26811 10.7644C5.26811 10.6584 5.29316 10.5774 5.34331 10.5214C5.39345 10.4655 5.45585 10.4375 5.53039 10.4375C5.60728 10.4375 5.67071 10.4718 5.72069 10.5405V10.453H5.87386V11.0204C5.87386 11.095 5.86781 11.1508 5.85567 11.1876C5.84358 11.2246 5.8266 11.2535 5.80471 11.2746C5.78282 11.2956 5.75363 11.3121 5.7171 11.324C5.68056 11.3359 5.63439 11.3418 5.57858 11.3418C5.47311 11.3418 5.3983 11.3234 5.35414 11.2865C5.30998 11.2495 5.28793 11.2027 5.28793 11.146C5.28793 11.1404 5.28815 11.1337 5.28853 11.1257ZM6.23651 10.2127H6.07147V11.0842H6.23651V10.2127ZM6.81114 10.7159C6.80999 10.6667 6.79763 10.6294 6.77406 10.6038C6.75053 10.5783 6.72189 10.5654 6.68813 10.5654C6.65203 10.5654 6.6222 10.579 6.59867 10.6059C6.5751 10.6329 6.56355 10.6696 6.56393 10.7159H6.81114ZM6.80266 10.8853L6.96601 10.913C6.94488 10.9738 6.9115 11.0202 6.86593 11.052C6.82035 11.0839 6.76329 11.0998 6.69485 11.0998C6.58644 11.0998 6.50624 11.0637 6.45424 10.9918C6.41313 10.9341 6.3926 10.8613 6.3926 10.7734C6.3926 10.6684 6.41955 10.5862 6.47357 10.5267C6.52753 10.4672 6.59575 10.4375 6.67824 10.4375C6.77097 10.4375 6.84409 10.4687 6.89767 10.5311C6.95125 10.5935 6.97684 10.6891 6.9745 10.8179H6.56107C6.56221 10.8676 6.5756 10.9062 6.6012 10.9339C6.62679 10.9614 6.65869 10.9753 6.69692 10.9753C6.72289 10.9753 6.74478 10.9682 6.76247 10.954C6.78017 10.9398 6.79362 10.9169 6.80266 10.8853ZM7.51449 10.2127V11.0842H8.16619V10.9372H7.68807V10.7003H8.11686V10.5534H7.68807V10.3597H8.1492V10.2127H7.51449ZM8.75611 11.0841V10.9896C8.73341 11.0233 8.70363 11.0501 8.66665 11.07C8.62968 11.0898 8.5907 11.0997 8.54964 11.0997C8.50777 11.0997 8.47031 11.0904 8.43704 11.0717C8.40383 11.0531 8.37976 11.0269 8.3649 10.9932C8.35003 10.9594 8.34263 10.9128 8.34263 10.8532V10.453H8.50766V10.7433C8.50766 10.8322 8.51066 10.8866 8.51676 10.9066C8.5228 10.9267 8.5338 10.9425 8.54981 10.9543C8.56581 10.9659 8.58607 10.9718 8.61068 10.9718C8.63878 10.9718 8.66399 10.964 8.6862 10.9483C8.70847 10.9326 8.72366 10.9132 8.73188 10.89C8.74005 10.8668 8.74419 10.81 8.74419 10.7196V10.453H8.90923V11.0841H8.75611ZM9.10686 11.0842H9.2719V10.889C9.2719 10.7815 9.27653 10.7109 9.28573 10.6772C9.29493 10.6435 9.30756 10.6202 9.32363 10.6072C9.33969 10.5944 9.35924 10.5879 9.38238 10.5879C9.40622 10.5879 9.43214 10.5971 9.45991 10.6153L9.51011 10.4691C9.47538 10.4481 9.43922 10.4375 9.40176 10.4375C9.37519 10.4375 9.3515 10.4445 9.3306 10.4583C9.30969 10.4723 9.28616 10.5004 9.25997 10.5428V10.453H9.10686V11.0842ZM9.74515 10.7687C9.74515 10.8316 9.75979 10.8797 9.78914 10.9131C9.81849 10.9465 9.85464 10.9632 9.89771 10.9632C9.94073 10.9632 9.97683 10.9465 10.006 10.9131C10.0351 10.8797 10.0497 10.8311 10.0497 10.7675C10.0497 10.7055 10.0351 10.6577 10.006 10.6243C9.97683 10.5909 9.94073 10.5742 9.89771 10.5742C9.85464 10.5742 9.81849 10.5909 9.78914 10.6243C9.75979 10.6577 9.74515 10.7059 9.74515 10.7687ZM9.57669 10.7596C9.57669 10.704 9.59014 10.6501 9.61709 10.598C9.64399 10.5459 9.6821 10.5061 9.73149 10.4787C9.78082 10.4512 9.83598 10.4375 9.89685 10.4375C9.99088 10.4375 10.0679 10.4686 10.128 10.5308C10.1881 10.5931 10.2182 10.6718 10.2182 10.7668C10.2182 10.8627 10.1878 10.9422 10.1271 11.0052C10.0665 11.0682 9.99007 11.0998 9.89799 11.0998C9.84104 11.0998 9.7867 11.0866 9.73503 11.0604C9.6833 11.0341 9.64399 10.9957 9.61709 10.9449C9.59014 10.8942 9.57669 10.8325 9.57669 10.7596ZM10.9291 10.6087V10.3597H11.0125C11.0748 10.3597 11.1162 10.3617 11.1368 10.3657C11.1648 10.3709 11.188 10.3838 11.2063 10.4046C11.2245 10.4253 11.2337 10.4517 11.2337 10.4836C11.2337 10.5096 11.2272 10.5323 11.2141 10.5518C11.2011 10.5714 11.1831 10.5858 11.1602 10.595C11.1372 10.6042 11.0917 10.6087 11.0236 10.6087H10.9291ZM10.7556 10.2127V11.0842H10.9291V10.7557H11.0419C11.1202 10.7557 11.1799 10.7515 11.2213 10.7431C11.2517 10.7364 11.2815 10.7227 11.311 10.7018C11.3404 10.681 11.3646 10.6523 11.3837 10.6159C11.4028 10.5794 11.4123 10.5344 11.4123 10.4809C11.4123 10.4115 11.3958 10.3549 11.3626 10.3112C11.3295 10.2673 11.2884 10.2388 11.2392 10.2258C11.2073 10.2171 11.1386 10.2127 11.0334 10.2127H10.7556ZM11.9308 10.7817C11.9098 10.7889 11.8765 10.7974 11.831 10.8074C11.7855 10.8173 11.7557 10.8271 11.7417 10.8366C11.7203 10.8521 11.7097 10.8718 11.7097 10.8957C11.7097 10.9192 11.7182 10.9394 11.7353 10.9566C11.7524 10.9737 11.7742 10.9823 11.8007 10.9823C11.8303 10.9823 11.8584 10.9723 11.8853 10.9524C11.9051 10.9373 11.9182 10.9188 11.9244 10.8969C11.9287 10.8826 11.9308 10.8553 11.9308 10.8151V10.7817ZM11.7097 10.645L11.5616 10.6173C11.5784 10.5562 11.6073 10.511 11.6482 10.4816C11.6892 10.4522 11.7501 10.4375 11.8308 10.4375C11.9042 10.4375 11.9589 10.4463 11.9947 10.4639C12.0306 10.4817 12.0559 10.5041 12.0705 10.5313C12.0852 10.5584 12.0925 10.6084 12.0925 10.6811L12.0908 10.8764C12.0908 10.9319 12.0935 10.973 12.0987 10.9993C12.104 11.0257 12.1138 11.054 12.1282 11.0842H11.9649C11.9605 11.0733 11.9553 11.057 11.9491 11.0356C11.9463 11.0258 11.9444 11.0194 11.9433 11.0162C11.9152 11.044 11.8852 11.065 11.8532 11.0789C11.8213 11.0928 11.7872 11.0998 11.751 11.0998C11.687 11.0998 11.6366 11.0821 11.5998 11.0468C11.563 11.0114 11.5446 10.9667 11.5446 10.9127C11.5446 10.877 11.553 10.8451 11.5697 10.8171C11.5865 10.7891 11.6101 10.7677 11.6403 10.7528C11.6705 10.7379 11.7142 10.7248 11.7711 10.7137C11.8479 10.699 11.9012 10.6854 11.9309 10.6726V10.6558C11.9309 10.6232 11.923 10.6001 11.9073 10.5862C11.8916 10.5723 11.862 10.5654 11.8185 10.5654C11.7891 10.5654 11.7662 10.5713 11.7497 10.5831C11.7332 10.5949 11.7198 10.6155 11.7097 10.645ZM12.3862 10.453H12.211L12.4478 11.0859C12.438 11.1215 12.4239 11.1509 12.4054 11.1741C12.387 11.1971 12.3586 11.2086 12.3201 11.2086C12.2994 11.2086 12.276 11.2061 12.2501 11.2008L12.2655 11.3317C12.2959 11.3384 12.327 11.3418 12.3587 11.3418C12.3899 11.3418 12.418 11.3384 12.4428 11.3316C12.4676 11.3249 12.4884 11.3154 12.5055 11.3033C12.5225 11.2912 12.5375 11.2754 12.5506 11.256C12.5637 11.2365 12.5774 11.2084 12.5919 11.1714L12.8508 10.453H12.6806L12.5351 10.9011L12.3862 10.453ZM12.9795 10.453H13.1309V10.5392C13.1853 10.4714 13.25 10.4375 13.3251 10.4375C13.365 10.4375 13.3996 10.4458 13.429 10.4624C13.4583 10.4792 13.4824 10.5044 13.5011 10.5381C13.5285 10.5044 13.558 10.4792 13.5896 10.4624C13.6213 10.4458 13.655 10.4375 13.6909 10.4375C13.7367 10.4375 13.7753 10.4469 13.807 10.4658C13.8386 10.4846 13.8623 10.5123 13.8779 10.5489C13.8892 10.5758 13.8948 10.6195 13.8948 10.6798V11.0842H13.7298V10.7227C13.7298 10.6599 13.7242 10.6195 13.7129 10.6012C13.6976 10.5773 13.6743 10.5654 13.6428 10.5654C13.6197 10.5654 13.598 10.5726 13.5778 10.5869C13.5575 10.6012 13.5429 10.6221 13.534 10.6497C13.525 10.6773 13.5205 10.7209 13.5205 10.7804V11.0842H13.3555V10.7376C13.3555 10.676 13.3526 10.6364 13.3467 10.6184C13.3409 10.6006 13.3318 10.5873 13.3195 10.5785C13.3072 10.5698 13.2906 10.5654 13.2696 10.5654C13.2442 10.5654 13.2214 10.5724 13.2012 10.5863C13.1809 10.6002 13.1664 10.6202 13.1576 10.6464C13.1488 10.6726 13.1445 10.7161 13.1445 10.7768V11.0842H12.9795V10.453ZM14.4262 10.6038C14.4499 10.6294 14.4622 10.6667 14.4634 10.7159H14.2162C14.2158 10.6696 14.2273 10.6329 14.2509 10.6059C14.2744 10.579 14.3043 10.5654 14.3403 10.5654C14.3741 10.5654 14.4028 10.5783 14.4262 10.6038ZM14.6182 10.913L14.4549 10.8853C14.4459 10.9169 14.4325 10.9398 14.4147 10.954C14.397 10.9682 14.3751 10.9753 14.3492 10.9753C14.3109 10.9753 14.279 10.9614 14.2534 10.9339C14.2278 10.9062 14.2144 10.8676 14.2132 10.8179H14.6267C14.6291 10.6891 14.6034 10.5935 14.5499 10.5311C14.4963 10.4687 14.4232 10.4375 14.3305 10.4375C14.2479 10.4375 14.1798 10.4672 14.1257 10.5267C14.0718 10.5862 14.0448 10.6684 14.0448 10.7734C14.0448 10.8613 14.0653 10.9341 14.1064 10.9918C14.1585 11.0637 14.2387 11.0998 14.347 11.0998C14.4155 11.0998 14.4725 11.0839 14.5182 11.052C14.5637 11.0202 14.5971 10.9738 14.6182 10.913ZM15.3612 11.0842H15.1962V10.7613C15.1962 10.6931 15.1926 10.6489 15.1857 10.6289C15.1787 10.6089 15.1673 10.5932 15.1516 10.5821C15.1358 10.571 15.1169 10.5654 15.0948 10.5654C15.0665 10.5654 15.041 10.5734 15.0185 10.5893C14.996 10.6051 14.9805 10.6262 14.9722 10.6524C14.9638 10.6786 14.9596 10.727 14.9596 10.7977V11.0842H14.7946V10.453H14.9477V10.5458C15.0019 10.4736 15.0702 10.4375 15.1524 10.4375C15.1886 10.4375 15.2219 10.4442 15.2518 10.4575C15.2818 10.4707 15.3046 10.4877 15.32 10.5084C15.3354 10.529 15.3461 10.5524 15.3521 10.5786C15.3582 10.6048 15.3612 10.6423 15.3612 10.6911V11.0842ZM15.8482 10.5861V10.453H15.7358V10.2282L15.5708 10.3268V10.453H15.4959V10.5861H15.5708V10.862C15.5708 10.9212 15.5725 10.9605 15.576 10.98C15.5803 11.0074 15.5879 11.0291 15.599 11.0452C15.6101 11.0613 15.6274 11.0744 15.6511 11.0845C15.6747 11.0946 15.7013 11.0997 15.7308 11.0997C15.7789 11.0997 15.822 11.0914 15.86 11.0747L15.8456 10.9453C15.8172 10.956 15.7956 10.9614 15.7806 10.9614C15.7699 10.9614 15.7608 10.9586 15.7533 10.953C15.7459 10.9474 15.7411 10.9404 15.739 10.9318C15.7369 10.9233 15.7358 10.8932 15.7358 10.8415V10.5861H15.8482ZM15.941 10.9061L16.106 10.8801C16.113 10.9124 16.1272 10.9369 16.1486 10.9536C16.1701 10.9704 16.2 10.9787 16.2386 10.9787C16.2811 10.9787 16.3131 10.9707 16.3345 10.9548C16.3489 10.9436 16.3561 10.9287 16.3561 10.9099C16.3561 10.8971 16.3522 10.8865 16.3443 10.8782C16.336 10.8702 16.3176 10.8628 16.289 10.856C16.1556 10.8261 16.0711 10.7988 16.0355 10.7742C15.986 10.74 15.9614 10.6925 15.9614 10.6318C15.9614 10.5769 15.9827 10.5308 16.0254 10.4935C16.0682 10.4562 16.1345 10.4375 16.2243 10.4375C16.3097 10.4375 16.3732 10.4515 16.4148 10.4794C16.4564 10.5074 16.485 10.5488 16.5007 10.6035L16.3459 10.6329C16.3392 10.6084 16.3265 10.5895 16.3077 10.5764C16.2889 10.5633 16.2622 10.5568 16.2275 10.5568C16.1837 10.5568 16.1523 10.5629 16.1334 10.5754C16.1207 10.5841 16.1145 10.5955 16.1145 10.6094C16.1145 10.6214 16.1199 10.6316 16.1309 10.64C16.1458 10.6511 16.1972 10.6669 16.2852 10.6873C16.3731 10.7076 16.4345 10.7325 16.4694 10.762C16.5039 10.7919 16.5212 10.8336 16.5212 10.887C16.5212 10.9451 16.4973 10.9951 16.4498 11.037C16.4021 11.0788 16.3318 11.0998 16.2386 11.0998C16.154 11.0998 16.087 11.0823 16.0377 11.0476C15.9884 11.0128 15.9561 10.9657 15.941 10.9061ZM17.4057 10.4167L17.5256 10.7401H17.2899L17.4057 10.4167ZM17.657 11.0842H17.8439L17.4976 10.2127H17.3151L16.9829 11.0842H17.1666L17.2372 10.8871H17.5829L17.657 11.0842ZM18.1272 11.0842H17.9621V10.453H18.1152V10.5428C18.1414 10.5004 18.1649 10.4723 18.1859 10.4583C18.2067 10.4445 18.2304 10.4375 18.257 10.4375C18.2945 10.4375 18.3306 10.4481 18.3654 10.4691L18.3152 10.6153C18.2874 10.5971 18.2615 10.5879 18.2376 10.5879C18.2144 10.5879 18.1949 10.5944 18.1788 10.6072C18.1628 10.6202 18.1501 10.6435 18.141 10.6772C18.1317 10.7109 18.1272 10.7815 18.1272 10.889V11.0842ZM18.8049 10.6038C18.8284 10.6294 18.8408 10.6667 18.842 10.7159H18.5948C18.5944 10.6696 18.606 10.6329 18.6295 10.6059C18.6531 10.579 18.6828 10.5654 18.719 10.5654C18.7527 10.5654 18.7813 10.5783 18.8049 10.6038ZM18.9968 10.913L18.8335 10.8853C18.8244 10.9169 18.811 10.9398 18.7933 10.954C18.7756 10.9682 18.7537 10.9753 18.7277 10.9753C18.6895 10.9753 18.6576 10.9614 18.632 10.9339C18.6064 10.9062 18.593 10.8676 18.5918 10.8179H19.0053C19.0077 10.6891 18.982 10.5935 18.9285 10.5311C18.8749 10.4687 18.8017 10.4375 18.7091 10.4375C18.6266 10.4375 18.5583 10.4672 18.5044 10.5267C18.4504 10.5862 18.4234 10.6684 18.4234 10.7734C18.4234 10.8613 18.4439 10.9341 18.485 10.9918C18.537 11.0637 18.6173 11.0998 18.7257 11.0998C18.7941 11.0998 18.8512 11.0839 18.8968 11.052C18.9423 11.0202 18.9757 10.9738 18.9968 10.913ZM19.5169 10.7817C19.4959 10.7889 19.4626 10.7974 19.4171 10.8074C19.3715 10.8173 19.3418 10.8271 19.3278 10.8366C19.3064 10.8521 19.2957 10.8718 19.2957 10.8957C19.2957 10.9192 19.3042 10.9394 19.3214 10.9566C19.3385 10.9737 19.3603 10.9823 19.3868 10.9823C19.4163 10.9823 19.4445 10.9723 19.4714 10.9524C19.4912 10.9373 19.5043 10.9188 19.5105 10.8969C19.5147 10.8826 19.5169 10.8553 19.5169 10.8151V10.7817ZM19.2957 10.645L19.1477 10.6173C19.1645 10.5562 19.1933 10.511 19.2343 10.4816C19.2753 10.4522 19.3361 10.4375 19.4169 10.4375C19.4902 10.4375 19.5449 10.4463 19.5808 10.4639C19.6167 10.4817 19.642 10.5041 19.6566 10.5313C19.6712 10.5584 19.6786 10.6084 19.6786 10.6811L19.6769 10.8764C19.6769 10.9319 19.6795 10.973 19.6847 10.9993C19.69 11.0257 19.6999 11.054 19.7142 11.0842H19.5509C19.5466 11.0733 19.5414 11.057 19.5351 11.0356C19.5324 11.0258 19.5304 11.0194 19.5293 11.0162C19.5012 11.044 19.4713 11.065 19.4393 11.0789C19.4074 11.0928 19.3733 11.0998 19.337 11.0998C19.2731 11.0998 19.2227 11.0821 19.1859 11.0468C19.1491 11.0114 19.1307 10.9667 19.1307 10.9127C19.1307 10.877 19.139 10.8451 19.1558 10.8171C19.1726 10.7891 19.1961 10.7677 19.2263 10.7528C19.2566 10.7379 19.3002 10.7248 19.3571 10.7137C19.434 10.699 19.4872 10.6854 19.5169 10.6726V10.6558C19.5169 10.6232 19.5091 10.6001 19.4934 10.5862C19.4777 10.5723 19.4481 10.5654 19.4045 10.5654C19.3751 10.5654 19.3522 10.5713 19.3357 10.5831C19.3193 10.5949 19.3059 10.6155 19.2957 10.645ZM17.4493 6.24046L18.0152 8.21755H16.9L17.4493 6.24046ZM16.6401 9.10601H18.2552L18.4856 9.89427H19.7091L18.344 5.33334H16.5219L15.1734 9.89427H16.4232L16.6401 9.10601Z" fill="#10298E"/>
<path fill-rule="evenodd" clip-rule="evenodd" d="M10.209 5.97508C10.7072 5.97508 11.1519 6.20831 11.4442 6.57361L11.7045 6.00629C11.2973 5.61515 10.7431 5.37401 10.1318 5.37401C9.17999 5.37401 8.36581 5.95815 8.03166 6.78504H7.52392L7.22412 7.43818H7.87729C7.87239 7.49877 7.86924 7.55941 7.86924 7.62128C7.86924 7.69614 7.87305 7.77012 7.88034 7.84321H7.55207L7.25233 8.49658H8.04723C8.39091 9.30255 9.19491 9.86838 10.1318 9.86838C10.6039 9.86838 11.042 9.72462 11.4047 9.47906V8.67834C11.1126 9.01631 10.6854 9.2299 10.209 9.2299C9.65223 9.2299 9.16246 8.93813 8.87726 8.49658H10.5418L10.8416 7.84321H8.63234C8.62096 7.76459 8.61486 7.68424 8.61486 7.60241C8.61486 7.54708 8.6177 7.4923 8.62292 7.43818H11.0273L11.3271 6.78504H8.83086C9.10692 6.30088 9.62065 5.97508 10.209 5.97508Z" fill="#FFBE00"/>
</svg>
