<svg width="23" height="16" viewBox="0 0 23 16" fill="none" xmlns="http://www.w3.org/2000/svg">
<rect x="0.5" y="0.5" width="22" height="15" rx="2" fill="white" stroke="#D9D9D9"/>
<path d="M10.2758 9.23724C10.2299 9.26136 10.1781 9.2753 10.1231 9.2753C9.99574 9.2753 9.88505 9.20255 9.82693 9.09484L9.80467 9.04428L8.8775 6.9312C8.86749 6.90823 8.86129 6.88223 8.86129 6.85693C8.86129 6.75955 8.93733 6.68066 9.03109 6.68066C9.06913 6.68066 9.10435 6.69375 9.13266 6.71561L10.2268 7.52469C10.3067 7.57895 10.4022 7.61079 10.5049 7.61079C10.5662 7.61079 10.6246 7.59896 10.6791 7.57836L15.8244 5.20001C14.9021 4.07114 13.3832 3.33334 11.6643 3.33334C8.85153 3.33334 6.57153 5.30672 6.57153 7.74117C6.57153 9.06921 7.25751 10.2648 8.33123 11.0728C8.41734 11.1367 8.47375 11.2417 8.47375 11.3601C8.47375 11.3993 8.46567 11.435 8.4558 11.4723C8.37005 11.8046 8.2328 12.3366 8.22642 12.3615C8.2157 12.4032 8.199 12.4468 8.199 12.4904C8.199 12.5878 8.27496 12.6667 8.36887 12.6667C8.40566 12.6667 8.43579 12.6524 8.46688 12.6339L9.58181 11.9653C9.66568 11.9151 9.75446 11.8839 9.85232 11.8839C9.90435 11.8839 9.95464 11.8923 10.0019 11.9073C10.5221 12.0627 11.0832 12.149 11.6643 12.149C14.4769 12.149 16.7572 10.1755 16.7572 7.74117C16.7572 7.00381 16.5468 6.30938 16.1771 5.69851L10.3132 9.2149L10.2758 9.23724Z" fill="#1AAD19"/>
</svg>
